# robotiq_arg2f_85_pad_out.obj

v -10.0 -23.901751 13.51442
v 10.0 -23.903299 48.51442
v -10.0 -23.903299 48.51442
v 10.0 -23.901751 13.51442
v -10.0 -18.901751 13.51464
v -10.0 -18.903299 48.514641
v 10.0 -18.901751 13.51464
v 10.0 -18.903299 48.514641

vn 0.0 -700.0 -0.030959999999993215
vn -0.0 -700.0 -0.030959999999993215
vn -0.0 700.00002 0.030959999999993215
vn -0.0 700.00002 0.030959999999993215
vn -175.00000534210798 0.0 0.0
vn -175.00000034055998 0.0 0.0
vn 0.0 -0.0044199999999250394 100.0
vn 0.0 -0.0044199999999250394 100.0
vn 175.00000534210798 0.0 0.0
vn 175.00000034055998 0.0 0.0
vn 0.0 0.004400000000011062 -100.0
vn 0.0 0.004400000000011062 -100.0

f 1//1 2//1 3//1
f 4//2 2//2 1//2
f 5//3 6//3 7//3
f 6//4 8//4 7//4
f 3//5 6//5 5//5
f 3//6 5//6 1//6
f 6//7 3//7 2//7
f 6//8 2//8 8//8
f 8//9 2//9 7//9
f 2//10 4//10 7//10
f 1//11 5//11 4//11
f 5//12 7//12 4//12